<?xml version="1.0" standalone="no"?>
<!DOCTYPE svg PUBLIC "-//W3C//DTD SVG 20010904//EN"
 "http://www.w3.org/TR/2001/REC-SVG-20010904/DTD/svg10.dtd">
<svg version="1.0" xmlns="http://www.w3.org/2000/svg"
 width="1024.000000pt" height="1024.000000pt" viewBox="0 0 1024.000000 1024.000000"
 preserveAspectRatio="xMidYMid meet">

<g transform="translate(0.000000,1024.000000) scale(0.100000,-0.100000)"
fill="#000000" stroke="none">
<path d="M5100 8259 c-45 -9 -72 -40 -329 -359 -221 -274 -295 -361 -904
-1072 -220 -258 -404 -468 -409 -468 -25 0 -85 36 -188 116 -63 48 -143 109
-178 136 -51 39 -71 48 -103 48 -78 0 -75 3 -399 -435 -73 -99 -197 -259 -274
-355 -186 -230 -347 -441 -1034 -1354 -677 -901 -743 -1000 -725 -1087 7 -34
28 -47 179 -108 55 -21 214 -90 354 -151 460 -201 1386 -599 1830 -785 135
-56 324 -137 420 -180 96 -42 319 -139 495 -215 176 -76 377 -163 447 -194
168 -73 228 -90 286 -81 26 3 171 35 322 70 151 35 460 106 685 159 226 52
581 133 790 181 381 86 792 183 1175 276 337 82 1084 253 1415 324 524 112
698 154 715 170 13 13 15 67 18 378 2 199 0 381 -3 403 -4 32 -24 65 -89 145
-117 146 -852 1121 -1086 1440 -107 147 -368 498 -580 780 -212 283 -406 544
-432 580 -86 122 -150 158 -220 125 -42 -20 -147 -104 -332 -265 -76 -67 -140
-120 -142 -119 -1 2 -58 71 -126 154 -67 82 -193 235 -279 340 -86 104 -271
329 -410 499 -255 312 -562 674 -673 795 -95 104 -139 126 -216 109z m-46
-616 c13 -283 38 -568 52 -595 15 -29 125 -137 227 -223 37 -31 67 -60 65 -64
-2 -4 -47 -88 -101 -188 -54 -100 -132 -252 -174 -340 l-76 -158 6 -100 c3
-55 13 -216 23 -357 l17 -258 -78 -122 c-116 -183 -175 -280 -175 -290 0 -5 7
-5 15 -1 36 21 402 353 527 480 l136 138 7 -55 c3 -30 15 -129 26 -218 18
-143 19 -166 6 -180 -8 -10 -75 -107 -148 -217 -152 -227 -455 -637 -659 -889
-114 -142 -349 -450 -398 -522 -16 -23 -20 -43 53 258 30 124 55 232 55 238 0
7 -23 -5 -51 -25 -28 -20 -168 -118 -312 -217 -144 -100 -389 -273 -544 -385
-155 -111 -299 -213 -320 -225 l-38 -23 48 55 c27 30 109 125 182 210 473 552
708 825 854 990 151 170 334 387 369 437 12 17 22 38 22 47 0 9 -22 44 -49 79
-123 159 -332 462 -328 476 3 9 32 111 66 227 33 117 77 256 97 310 58 159
104 297 104 313 0 27 -365 -342 -514 -519 l-74 -88 -21 22 c-17 18 -122 180
-283 439 -27 43 -29 50 -16 65 138 163 561 648 647 742 62 69 141 159 174 200
34 41 100 120 147 175 47 55 160 189 250 298 90 108 167 197 170 197 4 0 10
-62 14 -137z m2031 -1809 c-30 -219 -57 -416 -60 -436 l-5 -37 92 -48 91 -48
130 -175 c381 -513 727 -984 724 -985 -1 -1 -247 119 -547 268 -603 298 -571
287 -621 212 -30 -45 -198 -356 -340 -632 -68 -133 -96 -178 -101 -165 -4 9
-25 136 -47 280 -21 145 -44 269 -49 274 -16 16 -121 -49 -537 -337 -104 -72
-196 -135 -203 -139 -7 -4 17 51 53 124 304 606 927 1599 1274 2030 85 105
192 223 198 217 2 -2 -21 -184 -52 -403z m-4020 194 c43 -112 84 -221 93 -243
l15 -40 -115 -230 c-192 -384 -331 -714 -459 -1094 -38 -112 -68 -206 -66
-207 1 -2 63 43 137 99 221 168 800 581 800 572 0 -13 -200 -353 -376 -640
-69 -113 -103 -145 -210 -204 -284 -156 -389 -216 -604 -349 -129 -80 -261
-163 -293 -185 -32 -21 -60 -37 -63 -34 -2 2 16 51 42 108 78 178 146 359 251
664 36 105 75 216 88 248 13 31 22 57 20 57 -2 0 -109 -69 -237 -153 -204
-134 -397 -258 -887 -569 -68 -43 -125 -77 -127 -75 -12 12 197 292 801 1072
149 193 327 424 395 515 137 182 264 345 499 640 163 206 201 250 211 250 4 0
42 -91 85 -202z m2904 -2800 c-12 -187 5 -167 -246 -304 -220 -120 -341 -183
-356 -184 -4 0 7 16 25 35 66 70 570 555 576 555 4 0 4 -46 1 -102z"/>
</g>
</svg>
