<?xml version="1.0" standalone="no"?>
<!DOCTYPE svg PUBLIC "-//W3C//DTD SVG 20010904//EN"
 "http://www.w3.org/TR/2001/REC-SVG-20010904/DTD/svg10.dtd">
<svg version="1.0" xmlns="http://www.w3.org/2000/svg"
 width="1000.000000pt" height="1000.000000pt" viewBox="0 0 1000.000000 1000.000000"
 preserveAspectRatio="xMidYMid meet">
<metadata>
Created by potrace 1.16, written by Peter Selinger 2001-2019
</metadata>
<g transform="translate(0.000000,1000.000000) scale(0.100000,-0.100000)"
fill="#000000" stroke="none">
<path d="M4600 9291 c0 -5 -44 -14 -97 -20 -1667 -201 -3065 -1345 -3588
-2936 -324 -983 -276 -2090 130 -3025 20 -47 38 -95 40 -107 5 -38 381 -699
395 -696 5 2 51 -52 101 -118 708 -928 1760 -1530 2922 -1670 53 -6 97 -15 97
-20 0 -5 180 -9 405 -9 225 0 405 4 405 9 0 5 44 14 98 20 1159 140 2219 745
2918 1667 48 62 90 112 95 111 13 -3 403 668 402 692 -1 9 21 68 47 131 366
879 438 1810 209 2723 -358 1429 -1431 2580 -2834 3042 -246 81 -574 154 -837
186 -54 6 -98 15 -98 20 0 5 -180 9 -405 9 -225 0 -405 -4 -405 -9z m0 -2439
l0 -1628 -1400 -807 c-770 -444 -1403 -807 -1408 -807 -10 0 -82 182 -123 309
-114 356 -164 681 -164 1076 0 332 26 549 101 850 311 1250 1299 2238 2549
2549 119 30 292 63 410 79 17 2 31 5 33 6 1 0 2 -732 2 -1627z m995 1597 c346
-57 705 -178 1031 -349 887 -463 1537 -1288 1778 -2255 75 -301 101 -518 101
-850 0 -391 -48 -706 -160 -1065 -30 -95 -113 -311 -124 -323 -4 -4 -637 356
-1407 801 l-1399 808 -3 1631 -2 1630 32 -5 c18 -2 87 -13 153 -23z m-995
-5542 l0 -1394 -32 5 c-900 113 -1729 578 -2297 1287 -44 55 -81 102 -81 105
0 4 2399 1390 2407 1390 2 0 3 -627 3 -1393z m2043 673 c642 -371 1167 -677
1167 -680 0 -3 -34 -49 -75 -101 -559 -700 -1397 -1168 -2292 -1281 l-33 -5 0
1390 0 1389 33 -19 c17 -10 557 -322 1200 -693z"/>
</g>
</svg>
